<svg xmlns="http://www.w3.org/2000/svg" fill="none" viewBox="0 0 443 198">
  <path fill="#fff" d="M99.3 64.2V49.6c0-5.3-3.2-10-8.1-12.1L.7.2v8.1l80.7 33.3c2.8 1.1 2.8 5.1 0 6.2L.7 81.1v32.5l48.6-20.1 32 13.2c2.8 1.1 2.8 5.1 0 6.2L.7 146.2v51.5l90.5-37.3c4.9-2 8.1-6.8 8.1-12.1v-33.5c0-5.3-3.2-10-8.1-12.1L59.1 89.5l32.1-13.2c4.9-2 8.1-6.8 8.1-12.1ZM145.3 73.1l14.2 55.3 15.9-55.3h15.2l15 55.3 14.8-55.3h11.2l-19.1 66.7h-14.2l-15.7-57.5-16.3 57.5h-14.4l-18.5-66.7h11.9ZM248.7 109.7c.4 5.5 1 8.3 2.8 11.8 3.3 6.3 10.8 10.4 18.3 10.4 9.1 0 15-4.3 17.5-12.8h12.4c-3.1 14.4-14 22.4-30.1 22.4-20.1 0-32.9-13.8-32.9-35.4 0-21.1 12.8-35.2 31.9-35.2 20.3 0 31.3 13.8 31.3 38.6h-51.2v.2Zm35.8-20.4c-3.1-5.3-9.4-8.5-15.9-8.5-11.2 0-18.3 7.1-19.7 19.9h38.8c-.6-5.9-1.4-8.7-3.2-11.4ZM311.1 47.7h11.4v35.4c4.7-7.9 11.2-11.6 20.7-11.6 16.5 0 28.3 14.4 28.3 35s-11.2 34.6-28.2 34.6c-9.3 0-15.4-3.7-21.3-12.4v11h-11v-92h.1Zm11.6 58.5c0 14.6 8.3 25.4 19.1 25.4 10.4 0 17.3-9.8 17.3-25 0-15.9-6.9-25.8-17.7-25.8-10.8 0-18.7 10.4-18.7 25.4ZM392.2 111.7c-.2 11.8 7.3 19.5 19.1 19.5 10.6 0 18.3-6.7 18.3-15.9 0-9.4-7.3-15.2-19.1-15.2-1.2 0-2.2 0-3.9.2V90.1h3c12.2 0 19.3-5.3 19.3-14.8 0-8.9-6.9-14.6-17.3-14.6-11.2 0-17.7 6.7-18.1 18.5h-12.2c.8-18.3 12-28.9 30.5-28.9 17.1 0 29.1 9.8 29.1 24 0 9.4-6.7 18.1-15.7 20.5 11 2.8 16.9 10.2 16.9 21.3 0 15-12.8 25.6-30.9 25.6-18.9 0-31.7-12.2-31.5-29.9-.1-.1 12.5-.1 12.5-.1Z"/>
</svg>
